  0
SECTION
  2
HEADER
  9
$ACADVER
  1
AC1009
  9
$INSBASE
 10
0.0
 20
0.0
 30
0.0
  9
$EXTMIN
 10
2822.2659122561372
 20
1234.722790513086
 30
8.9892000000000003
  9
$EXTMAX
 10
7236.4788534640011
 20
9934.1037066847948
 30
17.978400000000001
  9
$LIMMIN
 10
0.0
 20
0.0
  9
$LIMMAX
 10
420.0
 20
297.0
  9
$ORTHOMODE
 70
     0
  9
$REGENMODE
 70
     1
  9
$FILLMODE
 70
     1
  9
$QTEXTMODE
 70
     0
  9
$MIRRTEXT
 70
     0
  9
$DRAGMODE
 70
     2
  9
$LTSCALE
 40
1.0
  9
$OSMODE
 70
   677
  9
$ATTMODE
 70
     1
  9
$TEXTSIZE
 40
2.5
  9
$TRACEWID
 40
1.0
  9
$TEXTSTYLE
  7
STANDARD
  9
$CLAYER
  8
0
  9
$CELTYPE
  6
BYLAYER
  9
$CECOLOR
 62
   256
  9
$DIMSCALE
 40
1.0
  9
$DIMASZ
 40
2.5
  9
$DIMEXO
 40
0.625
  9
$DIMDLI
 40
3.75
  9
$DIMRND
 40
0.0
  9
$DIMDLE
 40
0.0
  9
$DIMEXE
 40
1.25
  9
$DIMTP
 40
0.0
  9
$DIMTM
 40
0.0
  9
$DIMTXT
 40
2.5
  9
$DIMCEN
 40
2.5
  9
$DIMTSZ
 40
0.0
  9
$DIMTOL
 70
     0
  9
$DIMLIM
 70
     0
  9
$DIMTIH
 70
     0
  9
$DIMTOH
 70
     0
  9
$DIMSE1
 70
     0
  9
$DIMSE2
 70
     0
  9
$DIMTAD
 70
     1
  9
$DIMZIN
 70
     8
  9
$DIMBLK
  1

  9
$DIMASO
 70
     1
  9
$DIMSHO
 70
     1
  9
$DIMPOST
  1

  9
$DIMAPOST
  1

  9
$DIMALT
 70
     0
  9
$DIMALTD
 70
     3
  9
$DIMALTF
 40
0.03937007874016
  9
$DIMLFAC
 40
1.0
  9
$DIMTOFL
 70
     1
  9
$DIMTVP
 40
0.0
  9
$DIMTIX
 70
     0
  9
$DIMSOXD
 70
     0
  9
$DIMSAH
 70
     0
  9
$DIMBLK1
  1

  9
$DIMBLK2
  1

  9
$DIMSTYLE
  2
ISO-25
  9
$DIMCLRD
 70
     0
  9
$DIMCLRE
 70
     0
  9
$DIMCLRT
 70
     0
  9
$DIMTFAC
 40
1.0
  9
$DIMGAP
 40
0.625
  9
$LUNITS
 70
     2
  9
$LUPREC
 70
     4
  9
$SKETCHINC
 40
1.0
  9
$FILLETRAD
 40
0.0
  9
$AUNITS
 70
     0
  9
$AUPREC
 70
     0
  9
$MENU
  1
.
  9
$ELEVATION
 40
0.0
  9
$PELEVATION
 40
0.0
  9
$THICKNESS
 40
0.0
  9
$LIMCHECK
 70
     0
  9
$BLIPMODE
 70
     0
  9
$CHAMFERA
 40
0.0
  9
$CHAMFERB
 40
0.0
  9
$SKPOLY
 70
     0
  9
$TDCREATE
 40
2459172.633066956
  9
$TDUPDATE
 40
2459173.4437394789
  9
$TDINDWG
 40
0.1594763079
  9
$TDUSRTIMER
 40
0.1594740509
  9
$USRTIMER
 70
     1
  9
$ANGBASE
 50
0.0
  9
$ANGDIR
 70
     0
  9
$PDMODE
 70
     0
  9
$PDSIZE
 40
0.0
  9
$PLINEWID
 40
0.0
  9
$COORDS
 70
     1
  9
$SPLFRAME
 70
     0
  9
$SPLINETYPE
 70
     6
  9
$SPLINESEGS
 70
     8
  9
$ATTDIA
 70
     1
  9
$ATTREQ
 70
     1
  9
$HANDLING
 70
     1
  9
$HANDSEED
  5
771
  9
$SURFTAB1
 70
     6
  9
$SURFTAB2
 70
     6
  9
$SURFTYPE
 70
     6
  9
$SURFU
 70
     6
  9
$SURFV
 70
     6
  9
$UCSNAME
  2

  9
$UCSORG
 10
0.0
 20
0.0
 30
0.0
  9
$UCSXDIR
 10
1.0
 20
0.0
 30
0.0
  9
$UCSYDIR
 10
0.0
 20
1.0
 30
0.0
  9
$PUCSNAME
  2

  9
$PUCSORG
 10
0.0
 20
0.0
 30
0.0
  9
$PUCSXDIR
 10
1.0
 20
0.0
 30
0.0
  9
$PUCSYDIR
 10
0.0
 20
1.0
 30
0.0
  9
$USERI1
 70
     0
  9
$USERI2
 70
     0
  9
$USERI3
 70
     0
  9
$USERI4
 70
     0
  9
$USERI5
 70
     0
  9
$USERR1
 40
0.0
  9
$USERR2
 40
0.0
  9
$USERR3
 40
0.0
  9
$USERR4
 40
0.0
  9
$USERR5
 40
0.0
  9
$WORLDVIEW
 70
     1
  9
$SHADEDGE
 70
     3
  9
$SHADEDIF
 70
    70
  9
$TILEMODE
 70
     1
  9
$MAXACTVP
 70
    64
  9
$PLIMCHECK
 70
     0
  9
$PEXTMIN
 10
0.0
 20
0.0
 30
0.0
  9
$PEXTMAX
 10
0.0
 20
0.0
 30
0.0
  9
$PLIMMIN
 10
0.0
 20
0.0
  9
$PLIMMAX
 10
12.0
 20
9.0
  9
$UNITMODE
 70
     0
  9
$VISRETAIN
 70
     1
  9
$PLINEGEN
 70
     0
  9
$PSLTSCALE
 70
     1
  0
ENDSEC
  0
SECTION
  2
TABLES
  0
TABLE
  2
VPORT
 70
     1
  0
VPORT
  2
*ACTIVE
 70
     0
 10
0.0
 20
0.0
 11
1.0
 21
1.0
 12
5784.3655648141594
 22
6335.6652100401552
 13
0.0
 23
0.0
 14
10.0
 24
10.0
 15
10.0
 25
10.0
 16
0.0
 26
0.0
 36
1.0
 17
0.0
 27
0.0
 37
0.0
 40
8937.5993433992626
 41
1.3370098039215681
 42
50.0
 43
0.0
 44
0.0
 50
0.0
 51
0.0
 71
     0
 72
  1000
 73
     1
 74
     3
 75
     0
 76
     1
 77
     0
 78
     0
  0
ENDTAB
  0
TABLE
  2
LTYPE
 70
     1
  0
LTYPE
  2
CONTINUOUS
 70
     0
  3
Solid line
 72
    65
 73
     0
 40
0.0
  0
ENDTAB
  0
TABLE
  2
LAYER
 70
     4
  0
LAYER
  2
0
 70
     0
 62
    -7
  6
CONTINUOUS
  0
LAYER
  2
BOUNDRY
 70
     0
 62
     7
  6
CONTINUOUS
  0
LAYER
  2
RIVER
 70
     0
 62
   130
  6
CONTINUOUS
  0
ENDTAB
  0
TABLE
  2
STYLE
 70
     3
  0
STYLE
  2
STANDARD
 70
     0
 40
0.0
 41
1.0
 50
0.0
 71
     0
 42
2.5
  3
txt
  4

  0
STYLE
  2
ANNOTATIVE
 70
     0
 40
0.0
 41
1.0
 50
0.0
 71
     0
 42
2.5
  3
txt
  4

  0
STYLE
  2
AA
 70
     0
 40
0.2
 41
1.0
 50
0.0
 71
     0
 42
3.977668774226911
  3
txt
  4

  0
ENDTAB
  0
TABLE
  2
VIEW
 70
     0
  0
ENDTAB
  0
TABLE
  2
UCS
 70
     0
  0
ENDTAB
  0
TABLE
  2
APPID
 70
    24
  0
APPID
  2
ACAD
 70
     0
  0
APPID
  2
ACADANNOTATIVE
 70
     0
  0
APPID
  2
ACAD_PSEXT
 70
     0
  0
APPID
  2
ACADANNOPO
 70
     0
  0
APPID
  2
ACAD_DSTYLE_DIMJAG
 70
     0
  0
APPID
  2
ACAD_DSTYLE_DIMTALN
 70
     0
  0
APPID
  2
ACAD_MLEADERVER
 70
     0
  0
APPID
  2
ACAD_NAV_VCDISPLAY
 70
     0
  0
APPID
  2
ACAECLAYERSTANDARD
 70
     0
  0
APPID
  2
RD-HXK
 70
     0
  0
APPID
  2
RD-CDK
 70
     0
  0
APPID
  2
RD-COD
 70
     0
  0
APPID
  2
RD-PRM
 70
     0
  0
APPID
  2
ACAD_DSTYLE_DIMJOGGED_JOGA
 70
     0
  0
APPID
  2
ACCMTRANSPARENCY
 70
     0
  0
APPID
  2
YSDM
 70
     0
  0
APPID
  2
YSMC
 70
     0
  0
APPID
  2
GHZT
 70
     0
  0
APPID
  2
BZ
 70
     0
  0
APPID
  2
DLMC
 70
     0
  0
APPID
  2
DLCD
 70
     0
  0
APPID
  2
DLKD
 70
     0
  0
APPID
  2
HXKD
 70
     0
  0
APPID
  2
DMLX
 70
     0
  0
ENDTAB
  0
TABLE
  2
DIMSTYLE
 70
     3
  0
DIMSTYLE
  2
STANDARD
 70
     0
  3

  4

  5

  6

  7

 40
1.0
 41
0.18
 42
0.0625
 43
0.38
 44
0.18
 45
0.0
 46
0.0
 47
0.0
 48
0.0
140
0.18
141
0.09
142
0.0
143
25.399999999999999
144
1.0
145
0.0
146
1.0
147
0.09
 71
     0
 72
     0
 73
     1
 74
     1
 75
     0
 76
     0
 77
     0
 78
     0
170
     0
171
     2
172
     0
173
     0
174
     0
175
     0
176
     0
177
     0
178
     0
  0
DIMSTYLE
  2
ANNOTATIVE
 70
     0
  3

  4

  5

  6

  7

 40
0.0
 41
2.5
 42
0.625
 43
3.75
 44
1.25
 45
0.0
 46
0.0
 47
0.0
 48
0.0
140
2.5
141
2.5
142
0.0
143
0.03937007874016
144
1.0
145
0.0
146
1.0
147
0.625
 71
     0
 72
     0
 73
     0
 74
     0
 75
     0
 76
     0
 77
     1
 78
     8
170
     0
171
     3
172
     1
173
     0
174
     0
175
     0
176
     0
177
     0
178
     0
  0
DIMSTYLE
  2
ISO-25
 70
     0
  3

  4

  5

  6

  7

 40
1.0
 41
2.5
 42
0.625
 43
3.75
 44
1.25
 45
0.0
 46
0.0
 47
0.0
 48
0.0
140
2.5
141
2.5
142
0.0
143
0.03937007874016
144
1.0
145
0.0
146
1.0
147
0.625
 71
     0
 72
     0
 73
     0
 74
     0
 75
     0
 76
     0
 77
     1
 78
     8
170
     0
171
     3
172
     1
173
     0
174
     0
175
     0
176
     0
177
     0
178
     0
  0
ENDTAB
  0
ENDSEC
  0
SECTION
  2
BLOCKS
  0
BLOCK
  8
0
  2
$MODEL_SPACE
 70
     0
 10
0.0
 20
0.0
 30
0.0
  3
$MODEL_SPACE
  1

  0
ENDBLK
  5
4FF
  8
0
  0
BLOCK
 67
     1
  8
0
  2
$PAPER_SPACE
 70
     0
 10
0.0
 20
0.0
 30
0.0
  3
$PAPER_SPACE
  1

  0
ENDBLK
  5
4FB
 67
     1
  8
0
  0
ENDSEC
  0
SECTION
  2
ENTITIES
  0
POLYLINE
  5
28E
  8
0
 66
     1
 10
0.0
 20
0.0
 30
17.978400000000001
  0
VERTEX
  5
6C8
  8
0
 10
2822.2659122561372
 20
9934.1037066847948
 30
17.978400000000001
  0
VERTEX
  5
6C9
  8
0
 10
7236.4788534640011
 20
9934.1037066843273
 30
17.978400000000001
  0
VERTEX
  5
6CA
  8
0
 10
7236.4788534640011
 20
1234.722790513086
 30
17.978400000000001
  0
VERTEX
  5
6CB
  8
0
 10
2822.265912256195
 20
1234.722790513086
 30
17.978400000000001
  0
VERTEX
  5
6CC
  8
0
 10
2822.2659122571122
 20
9934.1037066847948
 30
17.978400000000001
  0
SEQEND
  5
6CD
  8
0
  0
POLYLINE
  5
28F
  8
RIVER
 66
     1
 10
0.0
 20
0.0
 30
8.9892000000000003
 70
     1
  0
VERTEX
  5
6CE
  8
RIVER
 10
5179.3791430176834
 20
5028.9497785818694
 30
8.9892000000000003
  0
VERTEX
  5
6CF
  8
RIVER
 10
5181.3552047631138
 20
5101.6796282025916
 30
8.9892000000000003
  0
VERTEX
  5
6D0
  8
RIVER
 10
5174.3445900804272
 20
5289.6018888232229
 30
8.9892000000000003
  0
VERTEX
  5
6D1
  8
RIVER
 10
5155.3451825823186
 20
5395.0898369437928
 30
8.9892000000000003
  0
VERTEX
  5
6D2
  8
RIVER
 10
5136.1935976699369
 20
5513.6253869518569
 30
8.9892000000000003
  0
VERTEX
  5
6D3
  8
RIVER
 10
5150.477729553696
 20
5698.2004837495197
 30
8.9892000000000003
  0
VERTEX
  5
6D4
  8
RIVER
 10
5226.180586575987
 20
5943.8194729251718
 30
8.9892000000000003
  0
VERTEX
  5
6D5
  8
RIVER
 10
5255.2696442623756
 20
6089.6343237440042
 30
8.9892000000000003
  0
VERTEX
  5
6D6
  8
RIVER
 10
5260.1070870270396
 20
6286.5462593654102
 30
8.9892000000000003
  0
VERTEX
  5
6D7
  8
RIVER
 10
5247.3676175510536
 20
6498.841514663206
 30
8.9892000000000003
  0
VERTEX
  5
6D8
  8
RIVER
 10
5263.5947486138812
 20
6642.513058620405
 30
8.9892000000000003
  0
VERTEX
  5
6D9
  8
RIVER
 10
5430.6870099130811
 20
6964.7932927924139
 30
8.9892000000000003
  0
VERTEX
  5
6DA
  8
RIVER
 10
5470.0222409015896
 20
7028.6076819220498
 30
8.9892000000000003
  0
VERTEX
  5
6DB
  8
RIVER
 10
5449.690306540745
 20
7151.3782632089151
 30
8.9892000000000003
  0
VERTEX
  5
6DC
  8
RIVER
 10
5321.5939731474991
 20
7302.7182252229122
 30
8.9892000000000003
  0
VERTEX
  5
6DD
  8
RIVER
 10
5271.0940337908023
 20
7467.8491195010902
 30
8.9892000000000003
  0
VERTEX
  5
6DE
  8
RIVER
 10
5246.7558413178676
 20
7583.7856868481213
 30
8.9892000000000003
  0
VERTEX
  5
6DF
  8
RIVER
 10
5209.239931359356
 20
7820.2515396828703
 30
8.9892000000000003
  0
VERTEX
  5
6E0
  8
RIVER
 10
5161.5881856216492
 20
7940.1293202418774
 30
8.9892000000000003
  0
VERTEX
  5
6E1
  8
RIVER
 10
5051.9870741831173
 20
8009.115855054366
 30
8.9892000000000003
  0
VERTEX
  5
6E2
  8
RIVER
 10
4810.4364457466772
 20
8040.0662942406661
 30
8.9892000000000003
  0
VERTEX
  5
6E3
  8
RIVER
 10
4620.8081232262093
 20
8032.2246651755559
 30
8.9892000000000003
  0
VERTEX
  5
6E4
  8
RIVER
 10
4618.0698179496594
 20
7982.1249769864544
 30
8.9892000000000003
  0
VERTEX
  5
6E5
  8
RIVER
 10
4808.2767051487372
 20
7989.9342505651457
 30
8.9892000000000003
  0
VERTEX
  5
6E6
  8
RIVER
 10
5034.6893177932861
 20
7960.9234802596193
 30
8.9892000000000003
  0
VERTEX
  5
6E7
  8
RIVER
 10
5121.1494957707973
 20
7906.5026080658608
 30
8.9892000000000003
  0
VERTEX
  5
6E8
  8
RIVER
 10
5160.7268719451276
 20
7806.937567106349
 30
8.9892000000000003
  0
VERTEX
  5
6E9
  8
RIVER
 10
5197.5677357147697
 20
7574.7265856837776
 30
8.9892000000000003
  0
VERTEX
  5
6EA
  8
RIVER
 10
5222.62250731739
 20
7455.3765469127247
 30
8.9892000000000003
  0
VERTEX
  5
6EB
  8
RIVER
 10
5276.7868295488206
 20
7278.2634041643632
 30
8.9892000000000003
  0
VERTEX
  5
6EC
  8
RIVER
 10
5402.6155460044301
 20
7129.6025278986372
 30
8.9892000000000003
  0
VERTEX
  5
6ED
  8
RIVER
 10
5417.63546381366
 20
7038.9075646152633
 30
8.9892000000000003
  0
VERTEX
  5
6EE
  8
RIVER
 10
5387.1511960471298
 20
6989.4522830097867
 30
8.9892000000000003
  0
VERTEX
  5
6EF
  8
RIVER
 10
5214.9487425958432
 20
6657.3157340641064
 30
8.9892000000000003
  0
VERTEX
  5
6F0
  8
RIVER
 10
5197.1985786596097
 20
6500.1595831517061
 30
8.9892000000000003
  0
VERTEX
  5
6F1
  8
RIVER
 10
5210.0702572724449
 20
6285.6611456492847
 30
8.9892000000000003
  0
VERTEX
  5
6F2
  8
RIVER
 10
5205.3908049741194
 20
6095.1803369772542
 30
8.9892000000000003
  0
VERTEX
  5
6F3
  8
RIVER
 10
5177.6464127058771
 20
5956.1058965720167
 30
8.9892000000000003
  0
VERTEX
  5
6F4
  8
RIVER
 10
5101.0562751633024
 20
5707.60811321241
 30
8.9892000000000003
  0
VERTEX
  5
6F5
  8
RIVER
 10
5085.882519121621
 20
5511.5375705318456
 30
8.9892000000000003
  0
VERTEX
  5
6F6
  8
RIVER
 10
5106.0571227064838
 20
5386.6702165733022
 30
8.9892000000000003
  0
VERTEX
  5
6F7
  8
RIVER
 10
5124.5108935193766
 20
5284.211736312036
 30
8.9892000000000003
  0
VERTEX
  5
6F8
  8
RIVER
 10
5131.3297912705384
 20
5101.4285228074459
 30
8.9892000000000003
  0
VERTEX
  5
6F9
  8
RIVER
 10
5127.8302098719769
 20
5031.6513437054982
 30
8.9892000000000003
  0
SEQEND
  5
6FA
  8
RIVER
  0
POLYLINE
  5
29A
  8
BOUNDRY
 66
     1
 10
0.0
 20
0.0
 30
8.9892000000000003
  0
VERTEX
  5
6FB
  8
BOUNDRY
 10
4740.3106392059608
 20
8695.8114956052905
 30
8.9892000000000003
 42
0.1230926927468177
  0
VERTEX
  5
6FC
  8
BOUNDRY
 10
4639.699943732694
 20
8371.5460094585014
 30
8.9892000000000003
  0
VERTEX
  5
6FD
  8
BOUNDRY
 10
4623.0711200699352
 20
8073.6281701884191
 30
8.9892000000000003
  0
VERTEX
  5
6FE
  8
BOUNDRY
 10
4613.3248922764224
 20
7895.3124149436071
 30
8.9892000000000003
 42
0.0639718577454794
  0
VERTEX
  5
6FF
  8
BOUNDRY
 10
4624.5026082835302
 20
7742.8148131569787
 30
8.9892000000000003
  0
VERTEX
  5
700
  8
BOUNDRY
 10
4730.749928740659
 20
7221.1894686747273
 30
8.9892000000000003
 42
-0.0612571711218928
  0
VERTEX
  5
701
  8
BOUNDRY
 10
4742.2467779670751
 20
7075.1737838698491
 30
8.9892000000000003
  0
VERTEX
  5
702
  8
BOUNDRY
 10
4733.3564789285801
 20
6872.2659672288164
 30
8.9892000000000003
  0
VERTEX
  5
703
  8
BOUNDRY
 10
4697.1181805607539
 20
6045.1808524815297
 30
8.9892000000000003
  0
VERTEX
  5
704
  8
BOUNDRY
 10
4689.1023325420583
 20
5852.9605727697663
 30
8.9892000000000003
  0
VERTEX
  5
705
  8
BOUNDRY
 10
4669.0816235366419
 20
5372.8633608416594
 30
8.9892000000000003
  0
VERTEX
  5
706
  8
BOUNDRY
 10
4670.9341417908327
 20
5031.6757269631071
 30
8.9892000000000003
  0
VERTEX
  5
707
  8
BOUNDRY
 10
4808.5434640173262
 20
5030.5660186860641
 30
8.9892000000000003
  0
VERTEX
  5
708
  8
BOUNDRY
 10
4965.7263262390534
 20
5040.1468483013032
 30
8.9892000000000003
  0
VERTEX
  5
709
  8
BOUNDRY
 10
5303.7075651639516
 20
5022.4340020435802
 30
8.9892000000000003
 42
0.0491167093185809
  0
VERTEX
  5
70A
  8
BOUNDRY
 10
5377.1282649262484
 20
5025.7986304381784
 30
8.9892000000000003
 42
-0.0588059816788629
  0
VERTEX
  5
70B
  8
BOUNDRY
 10
5466.5312013201092
 20
5028.1659378166232
 30
8.9892000000000003
  0
VERTEX
  5
70C
  8
BOUNDRY
 10
5645.5996253840749
 20
5011.825420062889
 30
8.9892000000000003
  0
VERTEX
  5
70D
  8
BOUNDRY
 10
5669.2968939050243
 20
5010.4747563413266
 30
8.9892000000000003
  0
VERTEX
  5
70E
  8
BOUNDRY
 10
5731.9448881120097
 20
5990.5430641601733
 30
8.9892000000000003
  0
VERTEX
  5
70F
  8
BOUNDRY
 10
5758.9016471012637
 20
6366.3607424361571
 30
8.9892000000000003
  0
VERTEX
  5
710
  8
BOUNDRY
 10
5970.3837886607416
 20
6344.1505945929248
 30
8.9892000000000003
  0
VERTEX
  5
711
  8
BOUNDRY
 10
6019.3745324384554
 20
6934.6216748132301
 30
8.9892000000000003
  0
VERTEX
  5
712
  8
BOUNDRY
 10
6034.6668350753516
 20
6971.5622390698572
 30
8.9892000000000003
  0
VERTEX
  5
713
  8
BOUNDRY
 10
5960.6199824748237
 20
7569.7789395152513
 30
8.9892000000000003
  0
VERTEX
  5
714
  8
BOUNDRY
 10
5933.8479775549968
 20
7782.8396125742183
 30
8.9892000000000003
  0
VERTEX
  5
715
  8
BOUNDRY
 10
5896.914722296051
 20
8327.5251415510593
 30
8.9892000000000003
  0
VERTEX
  5
716
  8
BOUNDRY
 10
5873.6880734192582
 20
8724.0219434559276
 30
8.9892000000000003
  0
VERTEX
  5
717
  8
BOUNDRY
 10
5785.3178992834773
 20
8743.8732906579007
 30
8.9892000000000003
  0
VERTEX
  5
718
  8
BOUNDRY
 10
5781.7244230559936
 20
8744.8417170680059
 30
8.9892000000000003
  0
VERTEX
  5
719
  8
BOUNDRY
 10
5720.7453316735246
 20
8759.2429901756277
 30
8.9892000000000003
  0
VERTEX
  5
71A
  8
BOUNDRY
 10
5667.143736887364
 20
8771.8467585280487
 30
8.9892000000000003
  0
VERTEX
  5
71B
  8
BOUNDRY
 10
5617.1708647834512
 20
8783.5727281578766
 30
8.9892000000000003
  0
VERTEX
  5
71C
  8
BOUNDRY
 10
5603.9567753577048
 20
8786.7888280180214
 30
8.9892000000000003
  0
VERTEX
  5
71D
  8
BOUNDRY
 10
5550.3946448215183
 20
8799.4092310554279
 30
8.9892000000000003
  0
VERTEX
  5
71E
  8
BOUNDRY
 10
5496.9827447833859
 20
8811.9768036570331
 30
8.9892000000000003
  0
VERTEX
  5
71F
  8
BOUNDRY
 10
5495.7185157835402
 20
8812.2910199066537
 30
8.9892000000000003
  0
VERTEX
  5
720
  8
BOUNDRY
 10
5462.607093166318
 20
8820.1205783429468
 30
8.9892000000000003
  0
VERTEX
  5
721
  8
BOUNDRY
 10
5430.6281480141824
 20
8827.6260516605289
 30
8.9892000000000003
  0
VERTEX
  5
722
  8
BOUNDRY
 10
5397.7370325846041
 20
8835.3375323306718
 30
8.9892000000000003
  0
VERTEX
  5
723
  8
BOUNDRY
 10
5396.5938623403117
 20
8835.6352878505295
 30
8.9892000000000003
  0
VERTEX
  5
724
  8
BOUNDRY
 10
5374.8007471046803
 20
8840.7818169983966
 30
8.9892000000000003
  0
VERTEX
  5
725
  8
BOUNDRY
 10
5295.9893649588248
 20
8859.3313818349416
 30
8.9892000000000003
  0
VERTEX
  5
726
  8
BOUNDRY
 10
5203.6732355950999
 20
8881.1903973984463
 30
8.9892000000000003
  0
VERTEX
  5
727
  8
BOUNDRY
 10
5127.8087605130768
 20
8898.8368556666119
 30
8.9892000000000003
  0
VERTEX
  5
728
  8
BOUNDRY
 10
5103.267434915284
 20
8905.0581768102857
 30
8.9892000000000003
  0
VERTEX
  5
729
  8
BOUNDRY
 10
5061.4790854675139
 20
8915.5595572249895
 30
8.9892000000000003
  0
VERTEX
  5
72A
  8
BOUNDRY
 10
4999.5334119924719
 20
8934.0717175606587
 30
8.9892000000000003
  0
VERTEX
  5
72B
  8
BOUNDRY
 10
4970.9178626157718
 20
8944.1479518105207
 30
8.9892000000000003
  0
VERTEX
  5
72C
  8
BOUNDRY
 10
4941.7691809448788
 20
8954.4802030146984
 30
8.9892000000000003
  0
VERTEX
  5
72D
  8
BOUNDRY
 10
4906.4456827419253
 20
8969.351655008637
 30
8.9892000000000003
  0
VERTEX
  5
72E
  8
BOUNDRY
 10
4740.3106392060781
 20
8695.8114956052905
 30
8.9892000000000003
 42
0.1230926927468177
  0
VERTEX
  5
72F
  8
BOUNDRY
 10
4639.6999437328104
 20
8371.5460094585014
 30
8.9892000000000003
  0
SEQEND
  5
730
  8
BOUNDRY
  0
LINE
  5
29B
  8
BOUNDRY
  6
BYBLOCK
 10
4623.0711200699352
 20
8073.6281701884191
 30
8.9892000000000003
 11
4623.0711200699352
 21
8073.6281701884191
 31
8.9892000000000003
1001
YSDM
1000
550101
1001
YSMC
1000
¿ìËÙÂ·
1001
DLMC
1000

1001
DLCD
1040
-1.0
1001
DLKD
1040
60.0
1001
HXKD
1040
-1.0
1001
DMLX
1000

1001
GHZT
1000

1001
BZ
1000

1001
RD-HXK
1000
60.00
1001
RD-CDK
1000
51.00
1001
RD-PRM
1000
3;10.0+4.5+7.0+3.0+11.5+8.0+11.5+3.0+7.0+4.5+10.0
1001
RD-COD
1000
86c49ae73
  0
ENDSEC
  0
EOF
